<?xml version="1.0" encoding="iso-8859-1"?>
<!-- Generator: Adobe Illustrator 19.0.0, SVG Export Plug-In . SVG Version: 6.00 Build 0)  -->
<svg version="1.1" id="Capa_1" xmlns="http://www.w3.org/2000/svg" xmlns:xlink="http://www.w3.org/1999/xlink" x="0px" y="0px"
	 viewBox="0 0 472 472" style="fill: white; enable-background:new 0 0 472 472;" xml:space="preserve">
<g>
	<g>
		<path d="M404.88,194.96L404.88,194.96l-56.88,0V8c0-4.418-3.582-8-8-8H67.12c-4.418,0-8,3.582-8,8v456c0,4.418,3.582,8,8,8h337.76
			c4.418,0,8-3.582,8-8V202.96C412.88,198.542,409.298,194.96,404.88,194.96z M117.76,202.96V456H75.12V16H332v178.96H125.76
			C121.342,194.96,117.76,198.542,117.76,202.96z M257.28,456h-72v-73.84h72V456z M345.28,456h-72v-73.84h72V456z M361.04,456
			v-81.84c0-4.418-3.582-8-8-8H177.6c-4.418,0-8,3.582-8,8V456h-35.84V210.96h263.12L397.12,456H361.04z"/>
	</g>
</g>
<g>
	<g>
		<path d="M285.2,33.76h-45.52c-4.418,0-8,3.582-8,8V87.2c0,4.418,3.582,8,8,8h45.44c4.418,0,8-3.582,8-8V41.76
			C293.12,37.373,289.587,33.804,285.2,33.76z M247.68,79.2V49.76h29.44l0.08,29.44H247.68z"/>
	</g>
</g>
<g>
	<g>
		<path d="M165.12,33.76h-45.44c-4.418,0-8,3.582-8,8V87.2c0,4.418,3.582,8,8,8h45.44c4.418,0,8-3.582,8-8V41.76
			C173.12,37.342,169.538,33.76,165.12,33.76z M157.12,79.2h-29.44V49.76h29.44V79.2z"/>
	</g>
</g>
<g>
	<g>
		<path d="M285.2,116h-45.52c-4.418,0-8,3.582-8,8v45.6c0,4.418,3.582,8,8,8h45.44c4.418,0,8-3.582,8-8V124
			C293.12,119.613,289.587,116.044,285.2,116z M247.68,161.44V132h29.44l0.08,29.44H247.68z"/>
	</g>
</g>
<g>
	<g>
		<path d="M165.12,116h-45.44c-4.418,0-8,3.582-8,8v45.6c0,4.418,3.582,8,8,8h45.44c4.418,0,8-3.582,8-8V124
			C173.12,119.582,169.538,116,165.12,116z M157.12,161.44h-29.44V132h29.44V161.44z"/>
	</g>
</g>
<g>
	<g>
		<path d="M348,222h-45.44c-4.418,0-8,3.582-8,8v45.44c0,4.418,3.582,8,8,8H348c4.418,0,8-3.582,8-8V230
			C356,225.582,352.418,222,348,222z M340,267.44h-29.44V238H340V267.44z"/>
	</g>
</g>
<g>
	<g>
		<path d="M228,222h-45.44c-4.418,0-8,3.582-8,8v45.44c0,4.418,3.582,8,8,8H228c4.418,0,8-3.582,8-8V230
			C236,225.582,232.418,222,228,222z M220,267.44h-29.44V238H220V267.44z"/>
	</g>
</g>
<g>
	<g>
		<path d="M348,295.84h-45.44c-4.418,0-8,3.582-8,8v45.44c0,4.418,3.582,8,8,8H348c4.418,0,8-3.582,8-8v-45.44
			C356,299.422,352.418,295.84,348,295.84z M340,341.28h-29.44v-29.44H340V341.28z"/>
	</g>
</g>
<g>
	<g>
		<path d="M228,295.84h-45.44c-4.418,0-8,3.582-8,8v45.44c0,4.418,3.582,8,8,8H228c4.418,0,8-3.582,8-8v-45.44
			C236,299.422,232.418,295.84,228,295.84z M220,341.28h-29.44v-29.44H220V341.28z"/>
	</g>
</g>
<g>
</g>
<g>
</g>
<g>
</g>
<g>
</g>
<g>
</g>
<g>
</g>
<g>
</g>
<g>
</g>
<g>
</g>
<g>
</g>
<g>
</g>
<g>
</g>
<g>
</g>
<g>
</g>
<g>
</g>
</svg>
